<svg width="447" height="447" viewBox="0 0 447 447" fill="none" xmlns="http://www.w3.org/2000/svg">
<path d="M155.349 52.3752C155.68 52.3427 156.042 52.3017 156.375 52.2964C166.062 52.1452 175.771 52.1989 185.459 52.1979L239.562 52.2102L272.58 52.2057C280.99 52.2064 292.368 51.7992 300.378 53.5177C311.635 56.0494 322.01 61.5457 330.428 69.4372C335.64 74.2442 339.965 79.9292 343.21 86.2332C353.808 106.507 350.235 125.996 351.043 148.208C351.273 148.19 351.503 148.177 351.733 148.169C361.39 147.805 371.758 148.167 381.518 148.066C388.315 148.398 396.405 147.38 403.005 148.566C413.04 150.37 413.815 158.071 413.443 166.567C413.243 171.108 413.91 173.747 410.3 177.375C405.543 182.157 400.053 181.527 393.84 181.539C393.388 186.218 392.07 190.791 391.165 195.382C389.968 201.453 388.743 207.527 387.545 213.596L374.19 281.253L361.945 343.17C360.12 352.155 358.778 361.605 356.273 370.408C354.973 374.975 351.285 380.63 347.88 383.93C336.19 395.243 326.395 394.75 311.825 394.753L292.125 394.74L173.387 394.738L139.492 394.748C125.373 394.748 114.802 396.215 102.741 387.11C88.8432 376.618 88.385 360.23 85.2117 344.585L73.5305 285.083L60.4222 218.946L56.2087 197.572C55.1285 192.169 53.9035 187.118 53.2237 181.625C47.0877 181.549 40.1847 181.996 35.913 176.539C32.3737 172.019 33.6135 163.623 33.74 158.219C33.8685 152.72 40.0765 148.794 45.0815 148.373C48.715 148.068 52.43 148.056 56.2542 148.053L72.8877 148.051L87.0342 148.06C89.7902 148.062 93.352 147.932 96.0045 148.328C97.031 120.657 91.5482 98.1534 111.145 74.9787C122.64 61.3844 137.609 53.8612 155.349 52.3752ZM117.258 148.248C124.272 147.91 132.246 148.079 139.347 148.078L176.066 148.076L289.795 148.078L315.155 148.057C319.78 148.054 325.363 147.906 329.918 148.165C329.778 140.604 329.738 133.042 329.793 125.48C329.8 108.832 329.403 97.2914 316.048 84.6917C310.183 79.1752 302.87 75.4392 294.965 73.9187C288.943 72.7362 279.135 73.0004 272.833 73.0007L243.556 73.0087L189.015 73.0039C179.196 73.0012 169.331 72.9319 159.516 73.0659C159.206 73.0702 158.764 73.0839 158.451 73.1082C139.337 74.5054 123.4 86.4162 118.319 105.502C116.555 112.131 117.157 121.282 117.172 128.281C117.154 134.937 117.183 141.592 117.258 148.248ZM171.108 373.97C180.432 373.888 189.757 373.855 199.082 373.873C202.083 373.873 210.524 373.683 213.066 374.09C212.669 342.393 213.01 310.345 212.908 278.6C196.35 278.363 177.344 278.21 160.82 278.57C161.486 281.375 161.918 287.72 162.235 290.863L164.589 313.568L168.622 351.698C169.403 358.685 170.519 367.035 171.108 373.97ZM93.4492 278.52C94.2867 280.905 94.7505 284.04 95.26 286.583C96.3012 291.735 97.303 296.895 98.2652 302.065L106.714 344.72C107.651 349.58 109.224 360.23 110.902 364.17C112.337 367.54 114.973 370.47 118.241 372.148C124.803 375.513 141.649 373.443 149.769 374.043C149.334 371.575 149.132 368.003 148.885 365.385C148.415 360.398 147.899 355.418 147.339 350.44C144.655 326.593 142.521 302.283 139.633 278.543C137.643 278.583 135.639 278.588 133.648 278.553C120.272 278.328 106.816 278.72 93.4492 278.52ZM286.093 278.725C279.075 278.423 271.755 278.55 264.703 278.55L233.98 278.523L234.104 374.003C243.287 373.713 252.875 373.955 262.085 373.863C264.528 373.838 274.025 373.705 275.91 374.04C276.228 371.343 276.523 368.643 276.79 365.943C278.045 356.363 278.855 346.275 279.848 336.63L283.073 306.418L285.015 287.928C285.263 285.655 285.658 280.833 286.093 278.725ZM297.33 374.07C302.313 373.733 307.938 373.948 312.943 373.943C322.318 373.935 329.53 374.773 335.213 365.988C337.143 362.4 337.595 357.323 338.42 353.223L341.865 336.193L350.243 293.723C350.625 291.733 352.655 280.305 353.353 279.1L353.05 278.708C350.065 278.4 344.958 278.513 341.82 278.51H318.838C315.818 278.51 310.24 278.673 307.358 278.455C306.49 285.248 305.953 291.743 305.233 298.52L301.353 334.85C300.055 347.005 297.82 362.05 297.33 374.07ZM89.3687 257.54C93.564 257.77 98.4325 257.653 102.679 257.655L125.056 257.68C128.235 257.685 134.639 257.513 137.627 257.793C136.646 251.895 136.088 244.485 135.47 238.48L132.909 214.848C132.278 208.392 131.604 201.942 130.888 195.495C130.406 191.217 129.678 185.801 129.413 181.566C116.917 181.416 104.377 181.571 91.8797 181.51C86.171 181.482 80.1772 181.631 74.4905 181.455C75.4505 184.193 76.524 192.233 77.2495 195.6C78.9152 203.33 80.352 211.267 81.8725 219.022L86.667 243.173C87.2905 246.221 89.181 254.708 89.3687 257.54ZM357.598 257.675C357.788 255.743 358.198 254.125 358.413 252.308C360.678 239.764 363.498 226.949 365.938 214.406L370.125 193.328C370.835 189.669 371.53 185.05 372.36 181.51C369.95 181.695 366.953 181.527 364.465 181.508L352.093 181.496C340.895 181.493 328.683 181.747 317.563 181.456C317.26 187.053 316.025 196.049 315.383 201.745L312.11 232.137C311.495 237.664 310.943 243.199 310.455 248.739C310.243 251.02 309.943 255.608 309.535 257.703C318.615 257.35 329.675 257.653 338.885 257.655L350.67 257.653C352.738 257.64 355.633 257.51 357.598 257.675ZM150.658 181.495C152.915 206.835 156.187 232.326 158.74 257.653L212.519 257.688L212.893 257.585C213.106 256.3 213.007 252.55 213.002 251.068L212.953 238.713L212.929 201.015C212.927 195.51 212.652 186.871 212.983 181.588L170.185 181.517C164.379 181.515 156.261 181.779 150.658 181.495ZM233.978 181.505C234.032 206.61 233.603 232.717 234.121 257.733C238.124 257.615 242.389 257.605 246.402 257.668C260.353 257.885 274.483 257.378 288.413 257.67C288.503 255.185 288.598 253.035 288.985 250.56C290.265 239.522 291.265 228.504 292.46 217.465C293.753 205.548 295.24 193.491 296.183 181.544C290.418 181.776 282.205 181.502 276.243 181.502L233.978 181.505Z" fill="black"/>
</svg>
