<svg width="310" height="379" viewBox="0 0 310 379" fill="none" xmlns="http://www.w3.org/2000/svg">
<path d="M32.0532 103.395C32.6087 103.336 33.1665 103.3 33.7252 103.286C42.4357 103.087 50.2827 109.177 51.1077 118.121C51.6885 124.416 51.3957 131.342 51.3937 137.703L51.3895 264.442C51.3855 280.007 51.3787 295.557 51.3925 311.135C51.1452 326.73 63.1095 341.025 78.4862 343.577C84.0225 344.495 91.6162 344.125 97.4125 344.125H191.799C202.941 344.125 214.081 344.127 225.224 344.077C238.809 344.015 250.889 335.65 255.796 322.98C256.791 320.367 257.459 317.637 257.781 314.857C258.324 310.33 258.124 303.892 258.121 299.162L258.104 135.176C258.109 129.479 257.979 123.37 258.419 117.694C258.704 114.034 260.189 111.154 262.759 108.494C265.984 105.183 270.401 103.303 275.024 103.274C279.586 103.222 283.976 105.01 287.204 108.235C293.566 114.648 292.206 122.73 292.201 131.046L292.209 297.885C292.206 305.402 292.481 314.585 291.346 321.925C289.789 331.482 286.176 340.587 280.759 348.615C270.776 363.45 255.284 373.687 237.721 377.052C227.994 378.925 212.284 378.322 201.909 378.325L103.287 378.33C94.676 378.327 82.8285 378.747 74.6117 377.535C64.499 376.097 54.8585 372.33 46.4522 366.527C31.7457 356.51 21.617 341.062 18.2905 323.582C16.739 315.415 17.2462 298.087 17.248 289.055L17.2385 131.772C17.2375 127.663 17.0522 123.351 17.2945 119.27C17.8175 110.46 23.7502 104.947 32.0532 103.395Z" fill="black"/>
<path d="M101.624 0.163949C105.72 -0.106051 111.308 0.0386967 115.525 0.0391967L139.946 0.0446975C161.542 0.0514475 183.151 0.0341985 204.749 0.0566985C210.424 0.0626985 214.611 1.1567 218.684 5.2947C220.639 7.2047 222.239 10.0909 222.766 12.7972C223.724 17.7189 223.411 23.5379 223.409 28.5434C223.436 36.2369 223.399 43.9304 223.296 51.6232L271.044 51.6204C277.639 51.6212 290.864 50.9922 297.016 52.3264C308.986 54.9212 313.604 71.5754 304.551 80.6889C302.084 83.2057 298.889 84.8814 295.414 85.4782C292.124 86.0557 287.176 85.9047 283.731 85.9032L36.1782 85.8899C29.2652 85.8922 22.2805 86.1302 15.3452 85.6342C1.01599 84.4932 -5.13326 66.6504 5.02649 56.6352C10.643 51.0987 16.1187 51.6464 23.478 51.6062C28.4972 51.5787 33.6172 51.6262 38.6545 51.6317L86.0585 51.6417C85.845 45.1157 86.1415 37.6809 86.0245 31.0719C85.9545 27.1184 85.8187 16.9702 86.421 13.7357C86.8997 11.0509 88.0367 8.5267 89.7307 6.38945C92.8257 2.47895 96.789 0.743699 101.624 0.163949ZM120.07 51.6147L188.974 51.6192C189.546 50.7882 189.221 36.6377 189.356 34.3177L141.499 34.2859L128.123 34.2914C126.026 34.2934 122.332 34.4024 120.331 34.1809C119.806 35.3769 120.301 48.7485 120.07 51.6147Z" fill="black"/>
<path d="M186.452 137.891C193.609 137.368 198.834 139.06 203.181 144.987C205.929 148.735 206.164 152.453 206.226 156.948C206.294 161.843 206.239 166.738 206.234 171.625L206.236 251.755C206.236 259.79 206.351 267.83 206.081 275.857C205.789 284.512 199.869 290.58 191.536 292.13C184.115 293.095 176.111 288.937 173.402 282.047C171.274 276.637 171.989 265.867 171.986 259.89L171.983 176.976C171.984 169.2 171.846 161.385 172.143 153.619C172.463 145.222 178.479 139.445 186.452 137.891Z" fill="black"/>
<path d="M117.487 137.906C122.118 137.546 125.935 137.955 129.903 140.605C133.591 143.036 136.143 146.851 136.98 151.188C137.624 154.525 137.407 164.949 137.406 168.804L137.416 266.29C137.416 269.665 137.4 272.922 137.251 276.297C136.896 284.317 131.025 290.575 123.148 292.03C114.938 293.685 105.197 287.627 103.795 279.44C102.798 273.61 103.219 265.327 103.217 259.277L103.217 177.704C103.218 169.786 103.104 161.86 103.358 153.948C103.634 145.305 109.287 139.665 117.487 137.906Z" fill="black"/>
</svg>
